HIERARCHY
ROOT Hips
{
	OFFSET 0.000000 0.000000 0.000000
	CHANNELS 6 Xposition Yposition Zposition Zrotation Yrotation Xrotation 
	JOINT LHipJoint
	{
		OFFSET 0.000000 0.000000 0.000000
		CHANNELS 3 Zrotation Yrotation Xrotation
		JOINT LeftUpLeg
		{
			OFFSET 1.363060 -1.794630 0.839290
			CHANNELS 3 Zrotation Yrotation Xrotation
			JOINT LeftLeg
			{
				OFFSET 2.448110 -6.726130 0.000000
				CHANNELS 3 Zrotation Yrotation Xrotation
				JOINT LeftFoot
				{
					OFFSET 2.562200 -7.039590 0.000000
					CHANNELS 3 Zrotation Yrotation Xrotation
					JOINT LeftToeBase
					{
						OFFSET 0.157640 -0.433110 2.322550
						CHANNELS 3 Zrotation Yrotation Xrotation
						End Site
						{
							OFFSET 0.000000 0.000000 0.000000
						}
					}
				}
			}
		}
	}
	JOINT RHipJoint
	{
		OFFSET 0.000000 0.000000 0.000000
		CHANNELS 3 Zrotation Yrotation Xrotation
		JOINT RightUpLeg
		{
			OFFSET -1.305520 -1.794630 0.839290
			CHANNELS 3 Zrotation Yrotation Xrotation
			JOINT RightLeg
			{
				OFFSET -2.542530 -6.985550 0.000000
				CHANNELS 3 Zrotation Yrotation Xrotation
				JOINT RightFoot
				{
					OFFSET -2.568260 -7.056230 0.000000
					CHANNELS 3 Zrotation Yrotation Xrotation
					JOINT RightToeBase
					{
						OFFSET -0.164730 -0.452590 2.363150
						CHANNELS 3 Zrotation Yrotation Xrotation
						End Site
						{
							OFFSET 0.000000 0.000000 0.000000
						}
					}
				}
			}
		}
	}
}
MOTION
Frames: 14
Frame Time: 0.008333
3.648112 17.245079 1.027663 -172.055594 -82.090518 -176.535325 -11.478322 1.812438 0.318195 -4.298462 20.249129 -16.174416 -2.699784 -1.078548 -1.924046 0.495330 4.077106 2.749074 0.866000 0.000000 -35.679100 9.392809 -1.583000 2.941335 3.484336 -1.632917 -10.997439 2.638311 1.866760 -5.208800 -0.195592 -2.957346 3.725916 -1.300200 0.000000 -42.836500
3.650581 17.246165 1.022483 -170.454653 -83.475261 -177.962507 -11.396687 1.822043 0.536253 -4.380050 19.455023 -16.658047 -2.715799 -1.088251 -1.882404 0.419970 3.463604 2.961625 0.786400 0.000000 -35.905500 9.448266 -1.590008 2.898109 3.587783 -2.084387 -11.111328 2.584675 1.881767 -5.039792 -0.321706 -3.858235 3.388691 -1.509600 0.000001 -42.498200
3.652864 17.247515 1.017242 -167.859541 -84.874071 179.633366 -11.290278 1.833405 0.763940 -4.475946 18.622797 -17.151048 -2.732909 -1.105414 -1.861315 0.347411 2.891523 3.197316 0.713301 0.000000 -36.119200 9.527310 -1.601103 2.868192 3.683650 -2.525364 -11.283931 2.524707 1.889208 -4.817782 -0.440539 -4.768579 3.026087 -1.727000 0.000000 -42.147600
3.655181 17.249169 1.012430 -162.221387 -86.295662 174.195083 -11.122835 1.839059 0.996292 -4.564876 17.763115 -17.653204 -2.753818 -1.135715 -1.838869 0.272934 2.340962 3.449281 0.643500 -0.000000 -36.314500 9.665484 -1.626208 2.857328 3.795456 -2.968817 -11.513973 2.456751 1.882098 -4.547859 -0.551435 -5.686799 2.641034 -1.952801 -0.000000 -41.786800
3.658295 17.251139 1.008410 -139.408128 -87.963639 151.567961 -10.806309 1.718918 1.187166 -4.586006 16.797527 -18.090727 -2.777173 -1.239983 -1.790260 0.169745 1.777797 3.754292 0.584400 0.000000 -36.488000 9.956395 -1.790321 2.905329 3.975326 -3.495986 -11.801334 2.362985 1.799431 -4.287680 -0.685387 -6.658500 2.212860 -2.181300 -0.000000 -41.425100
3.662804 17.253436 1.005635 -30.778015 -89.920706 43.088493 -11.642951 1.593495 1.431559 -5.080158 15.838300 -18.505523 -2.745524 -1.259542 -1.880504 0.118472 1.405061 4.076892 0.535100 -0.000000 -36.638800 9.144876 -1.971290 2.864894 3.611944 -4.014492 -12.017895 2.343930 1.808279 -3.909504 -0.746950 -7.458744 1.781738 -2.408600 -0.000000 -41.062900
3.668787 17.255604 1.008341 -8.255755 -88.428855 20.744900 -11.461262 1.862404 1.991966 -4.907796 14.007243 -19.125499 -2.679351 -1.180570 -1.785828 0.134615 1.296910 4.175858 0.514700 0.000000 -36.712900 9.273625 -1.741062 2.541597 4.014186 -5.506635 -12.307079 2.384219 1.889969 -3.320052 -0.674794 -7.893039 1.422008 -2.586200 0.000000 -40.675300
3.678393 17.258569 1.008706 -4.096782 -87.271012 16.663654 -11.320914 1.927723 2.223617 -5.001586 13.130003 -19.367274 -2.685280 -1.199833 -1.913204 0.099004 1.074421 4.470265 0.491100 0.000000 -36.812801 9.402632 -1.724536 2.486479 4.018060 -6.008734 -12.509075 2.325102 1.872636 -2.925741 -0.685068 -8.519729 1.102880 -2.784100 0.000000 -40.328500
3.691600 17.262037 1.010557 -1.773625 -86.183639 14.364478 -11.213983 1.967673 2.413152 -5.097789 12.318360 -19.496018 -2.686764 -1.223348 -2.056986 0.068616 0.923277 4.763767 0.479800 0.000001 -36.886300 9.507388 -1.725302 2.418088 3.981721 -6.517812 -12.654660 2.270332 1.841946 -2.568048 -0.682897 -9.033076 0.843383 -2.954900 -0.000000 -39.994700
3.708613 17.265886 1.013609 -0.228484 -85.238829 12.804292 -11.128274 1.985988 2.550660 -5.196290 11.608837 -19.525923 -2.685476 -1.246781 -2.208582 0.046279 0.852179 5.041128 0.482300 0.000000 -36.933700 9.598141 -1.730713 2.336596 3.909807 -6.998618 -12.743354 2.222010 1.803696 -2.279026 -0.674457 -9.417775 0.664649 -3.089800 0.000000 -39.665400
3.729768 17.270325 1.017587 0.908928 -84.486072 11.618937 -11.061931 1.978641 2.620194 -5.295744 11.052152 -19.466737 -2.683067 -1.267148 -2.352926 0.031939 0.851077 5.293390 0.496900 0.000000 -36.951400 9.676174 -1.736469 2.241947 3.808949 -7.419288 -12.770378 2.181556 1.759555 -2.082622 -0.666464 -9.664904 0.590647 -3.183300 0.000000 -39.358800
3.754665 17.275095 1.021833 1.885400 -83.964590 10.582342 -11.013173 1.942711 2.613769 -5.400540 10.666751 -19.330059 -2.680155 -1.284592 -2.490001 0.027390 0.932441 5.513603 0.526600 0.000000 -36.941900 9.742584 -1.739052 2.137492 3.678084 -7.750239 -12.742787 2.149718 1.712842 -2.006443 -0.666164 -9.764761 0.629195 -3.226800 -0.000000 -39.062201
3.782793 17.280353 1.025938 2.777917 -83.699205 9.633885 -10.983178 1.876790 2.528660 -5.511922 10.485795 -19.152911 -2.678967 -1.298776 -2.600330 0.031395 1.081070 5.694581 0.568700 -0.000000 -36.901700 9.794416 -1.740301 2.035212 3.530074 -7.955219 -12.678736 2.127041 1.666789 -2.067244 -0.678247 -9.727058 0.792098 -3.221900 -0.000000 -38.791500
3.813256 17.285948 1.029280 3.694969 -83.701032 8.677075 -10.970649 1.782960 2.368902 -5.631532 10.519550 -18.957376 -2.680826 -1.310849 -2.679394 0.043478 1.293161 5.834388 0.622700 0.000000 -36.833200 9.831898 -1.742419 1.946235 3.371050 -8.014117 -12.592596 2.112963 1.624175 -2.275098 -0.704301 -9.556741 1.077723 -3.168500 0.000000 -38.546500
